<svg width="100" height="100" viewBox="0 0 100 100" fill="none" xmlns="http://www.w3.org/2000/svg">
<path d="M79.1667 41.6667V50C79.1667 57.7355 76.0938 65.1541 70.6239 70.6239C65.1541 76.0938 57.7355 79.1667 50 79.1667M50 79.1667C42.2645 79.1667 34.8459 76.0938 29.3761 70.6239C23.9062 65.1541 20.8333 57.7355 20.8333 50V41.6667M50 79.1667V95.8333M33.3333 95.8333H66.6667M50 4.16666C46.6848 4.16666 43.5054 5.48362 41.1612 7.82783C38.817 10.172 37.5 13.3515 37.5 16.6667V50C37.5 53.3152 38.817 56.4946 41.1612 58.8388C43.5054 61.183 46.6848 62.5 50 62.5C53.3152 62.5 56.4946 61.183 58.8388 58.8388C61.183 56.4946 62.5 53.3152 62.5 50V16.6667C62.5 13.3515 61.183 10.172 58.8388 7.82783C56.4946 5.48362 53.3152 4.16666 50 4.16666Z" stroke="white" stroke-width="4" stroke-linecap="round" stroke-linejoin="round"/>
</svg>
